<svg width="500" height="500" xmlns="http://www.w3.org/2000/svg" xmlns:xlink="http://www.w3.org/1999/xlink"><g transform="translate(15,15)" class="content"><g transform="translate(30,302.5)" class="bar-box"><rect fill="rgba(131,43,189,0.6)" x="18.333334" width="73.33333" height="137.5" class="bar"></rect></g><g transform="translate(140,165)" class="bar-box"><rect fill="rgba(131,43,189,0.6)" x="18.333334" width="73.33333" height="275" class="bar"></rect></g><g transform="translate(250,27.5)" class="bar-box"><rect fill="rgba(131,43,189,0.6)" x="18.333334" width="73.33333" height="412.5" class="bar"></rect></g><g transform="translate(360,371.25)" class="bar-box"><rect fill="rgba(131,43,189,0.6)" x="18.333334" width="73.33333" height="68.75" class="bar"></rect></g><g transform="translate(30,0)" class="axes"><g transform="translate(0,440)" class="y-line"><text x="-5" y="4" text-anchor="end" fill="rgb(12,12,12)" class="label">0</text><line x1="0" x2="440" y1="0" y2="0" stroke="rgb(13,16,17)"></line></g><g transform="translate(0,412.5)" class="y-line"><text x="-5" y="4" text-anchor="end" fill="rgb(12,12,12)" class="label">2</text><line x1="0" x2="440" y1="0" y2="0" stroke="rgb(203,206,206)"></line></g><g transform="translate(0,385)" class="y-line"><text x="-5" y="4" text-anchor="end" fill="rgb(12,12,12)" class="label">4</text><line x1="0" x2="440" y1="0" y2="0" stroke="rgb(203,206,206)"></line></g><g transform="translate(0,357.5)" class="y-line"><text x="-5" y="4" text-anchor="end" fill="rgb(12,12,12)" class="label">6</text><line x1="0" x2="440" y1="0" y2="0" stroke="rgb(203,206,206)"></line></g><g transform="translate(0,330)" class="y-line"><text x="-5" y="4" text-anchor="end" fill="rgb(12,12,12)" class="label">8</text><line x1="0" x2="440" y1="0" y2="0" stroke="rgb(203,206,206)"></line></g><g transform="translate(0,302.5)" class="y-line"><text x="-5" y="4" text-anchor="end" fill="rgb(12,12,12)" class="label">10</text><line x1="0" x2="440" y1="0" y2="0" stroke="rgb(203,206,206)"></line></g><g transform="translate(0,275)" class="y-line"><text x="-5" y="4" text-anchor="end" fill="rgb(12,12,12)" class="label">12</text><line x1="0" x2="440" y1="0" y2="0" stroke="rgb(203,206,206)"></line></g><g transform="translate(0,247.5)" class="y-line"><text x="-5" y="4" text-anchor="end" fill="rgb(12,12,12)" class="label">14</text><line x1="0" x2="440" y1="0" y2="0" stroke="rgb(203,206,206)"></line></g><g transform="translate(0,220)" class="y-line"><text x="-5" y="4" text-anchor="end" fill="rgb(12,12,12)" class="label">16</text><line x1="0" x2="440" y1="0" y2="0" stroke="rgb(203,206,206)"></line></g><g transform="translate(0,192.5)" class="y-line"><text x="-5" y="4" text-anchor="end" fill="rgb(12,12,12)" class="label">18</text><line x1="0" x2="440" y1="0" y2="0" stroke="rgb(203,206,206)"></line></g><g transform="translate(0,165)" class="y-line"><text x="-5" y="4" text-anchor="end" fill="rgb(12,12,12)" class="label">20</text><line x1="0" x2="440" y1="0" y2="0" stroke="rgb(203,206,206)"></line></g><g transform="translate(0,137.5)" class="y-line"><text x="-5" y="4" text-anchor="end" fill="rgb(12,12,12)" class="label">22</text><line x1="0" x2="440" y1="0" y2="0" stroke="rgb(203,206,206)"></line></g><g transform="translate(0,110)" class="y-line"><text x="-5" y="4" text-anchor="end" fill="rgb(12,12,12)" class="label">24</text><line x1="0" x2="440" y1="0" y2="0" stroke="rgb(203,206,206)"></line></g><g transform="translate(0,82.5)" class="y-line"><text x="-5" y="4" text-anchor="end" fill="rgb(12,12,12)" class="label">26</text><line x1="0" x2="440" y1="0" y2="0" stroke="rgb(203,206,206)"></line></g><g transform="translate(0,55)" class="y-line"><text x="-5" y="4" text-anchor="end" fill="rgb(12,12,12)" class="label">28</text><line x1="0" x2="440" y1="0" y2="0" stroke="rgb(203,206,206)"></line></g><g transform="translate(0,27.5)" class="y-line"><text x="-5" y="4" text-anchor="end" fill="rgb(12,12,12)" class="label">30</text><line x1="0" x2="440" y1="0" y2="0" stroke="rgb(203,206,206)"></line></g><g transform="translate(0,0)" class="y-line"><text x="-5" y="4" text-anchor="end" fill="rgb(12,12,12)" class="label">32</text><line x1="0" x2="440" y1="0" y2="0" stroke="rgb(203,206,206)"></line></g><g transform="translate(0,440)" class="x-line"><text x="55" y="17" text-anchor="middle" fill="rgb(12,12,12)" class="label">One</text><line x1="0" x2="0" y1="0" y2="-440" stroke="rgb(13,16,17)"></line></g><g transform="translate(110,440)" class="x-line"><text x="55" y="17" text-anchor="middle" fill="rgb(12,12,12)" class="label">Two</text><line x1="0" x2="0" y1="0" y2="-440" stroke="rgb(203,206,206)"></line></g><g transform="translate(220,440)" class="x-line"><text x="55" y="17" text-anchor="middle" fill="rgb(12,12,12)" class="label">Three</text><line x1="0" x2="0" y1="0" y2="-440" stroke="rgb(203,206,206)"></line></g><g transform="translate(330,440)" class="x-line"><text x="55" y="17" text-anchor="middle" fill="rgb(12,12,12)" class="label">Four</text><line x1="0" x2="0" y1="0" y2="-440" stroke="rgb(203,206,206)"></line></g></g></g></svg>