<svg width="500" height="500" xmlns="http://www.w3.org/2000/svg" xmlns:xlink="http://www.w3.org/1999/xlink"><g transform="translate(10,10)" class="content"><g transform="translate(30,313.63635)" class="bar-box"><rect fill="rgba(131,43,189,0.6)" x="18.75" width="75" height="136.36365" class="bar"></rect></g><g transform="translate(142.5,177.2727)" class="bar-box"><rect fill="rgba(131,43,189,0.6)" x="18.75" width="75" height="272.7273" class="bar"></rect></g><g transform="translate(255,40.90909)" class="bar-box"><rect fill="rgba(131,43,189,0.6)" x="18.75" width="75" height="409.0909" class="bar"></rect></g><g transform="translate(367.5,381.81818)" class="bar-box"><rect fill="rgba(131,43,189,0.6)" x="18.75" width="75" height="68.18182" class="bar"></rect></g><g transform="translate(30,450)" class="x-axis"><line stroke="rgb(13,16,17)" x2="450" class="axis"></line><text x="56.25" y="15" text-anchor="middle" class="label">One</text><text x="168.75" y="15" text-anchor="middle" class="label">Two</text><line stroke="rgb(203,206,206)" x1="112.5" x2="112.5" y1="0" y2="-450" class="separator"></line><text x="281.25" y="15" text-anchor="middle" class="label">Three</text><line stroke="rgb(203,206,206)" x1="225" x2="225" y1="0" y2="-450" class="separator"></line><text x="393.75" y="15" text-anchor="middle" class="label">Four</text><line stroke="rgb(203,206,206)" x1="337.5" x2="337.5" y1="0" y2="-450" class="separator"></line></g><g transform="translate(0,0)" class="y-axis"><line stroke="rgb(13,16,17)" x1="30" x2="30" y1="0" y2="450" class="axis"></line><text x="25" y="450" text-anchor="end" class="value">0</text><line stroke="rgb(203,206,206)" x1="30" x2="480" y1="450" y2="450" class="separator"></line><text x="25" y="422.72726" text-anchor="end" class="value">2</text><line stroke="rgb(203,206,206)" x1="30" x2="480" y1="422.72726" y2="422.72726" class="separator"></line><text x="25" y="395.45453" text-anchor="end" class="value">4</text><line stroke="rgb(203,206,206)" x1="30" x2="480" y1="395.45453" y2="395.45453" class="separator"></line><text x="25" y="368.18182" text-anchor="end" class="value">6</text><line stroke="rgb(203,206,206)" x1="30" x2="480" y1="368.18182" y2="368.18182" class="separator"></line><text x="25" y="340.9091" text-anchor="end" class="value">8</text><line stroke="rgb(203,206,206)" x1="30" x2="480" y1="340.9091" y2="340.9091" class="separator"></line><text x="25" y="313.63635" text-anchor="end" class="value">10</text><line stroke="rgb(203,206,206)" x1="30" x2="480" y1="313.63635" y2="313.63635" class="separator"></line><text x="25" y="286.36365" text-anchor="end" class="value">12</text><line stroke="rgb(203,206,206)" x1="30" x2="480" y1="286.36365" y2="286.36365" class="separator"></line><text x="25" y="259.0909" text-anchor="end" class="value">14</text><line stroke="rgb(203,206,206)" x1="30" x2="480" y1="259.0909" y2="259.0909" class="separator"></line><text x="25" y="231.81818" text-anchor="end" class="value">16</text><line stroke="rgb(203,206,206)" x1="30" x2="480" y1="231.81818" y2="231.81818" class="separator"></line><text x="25" y="204.54544" text-anchor="end" class="value">18</text><line stroke="rgb(203,206,206)" x1="30" x2="480" y1="204.54544" y2="204.54544" class="separator"></line><text x="25" y="177.2727" text-anchor="end" class="value">20</text><line stroke="rgb(203,206,206)" x1="30" x2="480" y1="177.2727" y2="177.2727" class="separator"></line><text x="25" y="150" text-anchor="end" class="value">22</text><line stroke="rgb(203,206,206)" x1="30" x2="480" y1="150" y2="150" class="separator"></line><text x="25" y="122.727264" text-anchor="end" class="value">24</text><line stroke="rgb(203,206,206)" x1="30" x2="480" y1="122.727264" y2="122.727264" class="separator"></line><text x="25" y="95.45453" text-anchor="end" class="value">26</text><line stroke="rgb(203,206,206)" x1="30" x2="480" y1="95.45453" y2="95.45453" class="separator"></line><text x="25" y="68.18182" text-anchor="end" class="value">28</text><line stroke="rgb(203,206,206)" x1="30" x2="480" y1="68.18182" y2="68.18182" class="separator"></line><text x="25" y="40.90909" text-anchor="end" class="value">30</text><line stroke="rgb(203,206,206)" x1="30" x2="480" y1="40.90909" y2="40.90909" class="separator"></line><text x="25" y="13.636353" text-anchor="end" class="value">32</text><line stroke="rgb(203,206,206)" x1="30" x2="480" y1="13.636353" y2="13.636353" class="separator"></line></g></g></svg>