<svg width="500" height="500" xmlns="http://www.w3.org/2000/svg" xmlns:xlink="http://www.w3.org/1999/xlink"><g transform="translate(15,15)" class="content"><g transform="translate(0,0)" class="y-axis"><line stroke="rgb(13,16,17)" x1="30" x2="30" y1="0" y2="440" class="axis"></line><text x="25" y="440" text-anchor="end" class="value">0</text><line stroke="rgb(203,206,206)" x1="30" x2="470" y1="440" y2="440" class="separator"></line><text x="25" y="412.4138" text-anchor="end" class="value">20</text><line stroke="rgb(203,206,206)" x1="30" x2="470" y1="412.4138" y2="412.4138" class="separator"></line><text x="25" y="384.82758" text-anchor="end" class="value">40</text><line stroke="rgb(203,206,206)" x1="30" x2="470" y1="384.82758" y2="384.82758" class="separator"></line><text x="25" y="357.2414" text-anchor="end" class="value">60</text><line stroke="rgb(203,206,206)" x1="30" x2="470" y1="357.2414" y2="357.2414" class="separator"></line><text x="25" y="329.65515" text-anchor="end" class="value">80</text><line stroke="rgb(203,206,206)" x1="30" x2="470" y1="329.65515" y2="329.65515" class="separator"></line><text x="25" y="302.06897" text-anchor="end" class="value">100</text><line stroke="rgb(203,206,206)" x1="30" x2="470" y1="302.06897" y2="302.06897" class="separator"></line><text x="25" y="274.48276" text-anchor="end" class="value">120</text><line stroke="rgb(203,206,206)" x1="30" x2="470" y1="274.48276" y2="274.48276" class="separator"></line><text x="25" y="246.89655" text-anchor="end" class="value">140</text><line stroke="rgb(203,206,206)" x1="30" x2="470" y1="246.89655" y2="246.89655" class="separator"></line><text x="25" y="219.31033" text-anchor="end" class="value">160</text><line stroke="rgb(203,206,206)" x1="30" x2="470" y1="219.31033" y2="219.31033" class="separator"></line><text x="25" y="191.72414" text-anchor="end" class="value">180</text><line stroke="rgb(203,206,206)" x1="30" x2="470" y1="191.72414" y2="191.72414" class="separator"></line><text x="25" y="164.13794" text-anchor="end" class="value">200</text><line stroke="rgb(203,206,206)" x1="30" x2="470" y1="164.13794" y2="164.13794" class="separator"></line><text x="25" y="136.55173" text-anchor="end" class="value">220</text><line stroke="rgb(203,206,206)" x1="30" x2="470" y1="136.55173" y2="136.55173" class="separator"></line><text x="25" y="108.965515" text-anchor="end" class="value">240</text><line stroke="rgb(203,206,206)" x1="30" x2="470" y1="108.965515" y2="108.965515" class="separator"></line><text x="25" y="81.3793" text-anchor="end" class="value">260</text><line stroke="rgb(203,206,206)" x1="30" x2="470" y1="81.3793" y2="81.3793" class="separator"></line><text x="25" y="53.79309" text-anchor="end" class="value">280</text><line stroke="rgb(203,206,206)" x1="30" x2="470" y1="53.79309" y2="53.79309" class="separator"></line><text x="25" y="26.206879" text-anchor="end" class="value">300</text><line stroke="rgb(203,206,206)" x1="30" x2="470" y1="26.206879" y2="26.206879" class="separator"></line></g><g transform="translate(30,440)" class="x-axis"><line stroke="rgb(13,16,17)" x2="440" class="axis"></line><text x="0" y="15" text-anchor="middle" class="label">One</text><text x="60.714287" y="15" text-anchor="middle" class="label">Two</text><line stroke="rgb(203,206,206)" x1="60.714287" x2="60.714287" y1="0" y2="-440" class="separator"></line><text x="121.42857" y="15" text-anchor="middle" class="label">Three</text><line stroke="rgb(203,206,206)" x1="121.42857" x2="121.42857" y1="0" y2="-440" class="separator"></line><text x="182.14285" y="15" text-anchor="middle" class="label">Four</text><line stroke="rgb(203,206,206)" x1="182.14285" x2="182.14285" y1="0" y2="-440" class="separator"></line><text x="242.85715" y="15" text-anchor="middle" class="label">Five</text><line stroke="rgb(203,206,206)" x1="242.85715" x2="242.85715" y1="0" y2="-440" class="separator"></line><text x="303.57144" y="15" text-anchor="middle" class="label">Six</text><line stroke="rgb(203,206,206)" x1="303.57144" x2="303.57144" y1="0" y2="-440" class="separator"></line><text x="364.2857" y="15" text-anchor="middle" class="label">Seven</text><line stroke="rgb(203,206,206)" x1="364.2857" x2="364.2857" y1="0" y2="-440" class="separator"></line><text x="425" y="15" text-anchor="middle" class="label">Eight</text><line stroke="rgb(203,206,206)" x1="425" x2="425" y1="0" y2="-440" class="separator"></line></g><g transform="translate(30,0)" class="line-box"><path fill="none" stroke-width="2" stroke="rgb(1,120,111)" d="M0,274.48276L60.714287,164.13794L121.42857,40L182.14285,371.0345L242.85715,411.0345L303.57144,205.51724L364.2857,333.7931L425,263.44827" class="line"></path></g></g></svg>