<svg width="500" height="500" xmlns="http://www.w3.org/2000/svg" xmlns:xlink="http://www.w3.org/1999/xlink"><g transform="translate(15,15)" class="content"><g transform="translate(30,0)" class="axes"><g transform="translate(0,440)" class="y-line"><text x="-5" y="4" text-anchor="end" fill="rgb(12,12,12)" class="label">0</text><line x1="0" x2="440" y1="0" y2="0" stroke="rgb(13,16,17)"></line></g><g transform="translate(0,410.66666)" class="y-line"><text x="-5" y="4" text-anchor="end" fill="rgb(12,12,12)" class="label">20</text><line x1="0" x2="440" y1="0" y2="0" stroke="rgb(203,206,206)"></line></g><g transform="translate(0,381.33334)" class="y-line"><text x="-5" y="4" text-anchor="end" fill="rgb(12,12,12)" class="label">40</text><line x1="0" x2="440" y1="0" y2="0" stroke="rgb(203,206,206)"></line></g><g transform="translate(0,352)" class="y-line"><text x="-5" y="4" text-anchor="end" fill="rgb(12,12,12)" class="label">60</text><line x1="0" x2="440" y1="0" y2="0" stroke="rgb(203,206,206)"></line></g><g transform="translate(0,322.66666)" class="y-line"><text x="-5" y="4" text-anchor="end" fill="rgb(12,12,12)" class="label">80</text><line x1="0" x2="440" y1="0" y2="0" stroke="rgb(203,206,206)"></line></g><g transform="translate(0,293.3333)" class="y-line"><text x="-5" y="4" text-anchor="end" fill="rgb(12,12,12)" class="label">100</text><line x1="0" x2="440" y1="0" y2="0" stroke="rgb(203,206,206)"></line></g><g transform="translate(0,264)" class="y-line"><text x="-5" y="4" text-anchor="end" fill="rgb(12,12,12)" class="label">120</text><line x1="0" x2="440" y1="0" y2="0" stroke="rgb(203,206,206)"></line></g><g transform="translate(0,234.66667)" class="y-line"><text x="-5" y="4" text-anchor="end" fill="rgb(12,12,12)" class="label">140</text><line x1="0" x2="440" y1="0" y2="0" stroke="rgb(203,206,206)"></line></g><g transform="translate(0,205.33333)" class="y-line"><text x="-5" y="4" text-anchor="end" fill="rgb(12,12,12)" class="label">160</text><line x1="0" x2="440" y1="0" y2="0" stroke="rgb(203,206,206)"></line></g><g transform="translate(0,176)" class="y-line"><text x="-5" y="4" text-anchor="end" fill="rgb(12,12,12)" class="label">180</text><line x1="0" x2="440" y1="0" y2="0" stroke="rgb(203,206,206)"></line></g><g transform="translate(0,146.66666)" class="y-line"><text x="-5" y="4" text-anchor="end" fill="rgb(12,12,12)" class="label">200</text><line x1="0" x2="440" y1="0" y2="0" stroke="rgb(203,206,206)"></line></g><g transform="translate(0,117.33331)" class="y-line"><text x="-5" y="4" text-anchor="end" fill="rgb(12,12,12)" class="label">220</text><line x1="0" x2="440" y1="0" y2="0" stroke="rgb(203,206,206)"></line></g><g transform="translate(0,88)" class="y-line"><text x="-5" y="4" text-anchor="end" fill="rgb(12,12,12)" class="label">240</text><line x1="0" x2="440" y1="0" y2="0" stroke="rgb(203,206,206)"></line></g><g transform="translate(0,58.666656)" class="y-line"><text x="-5" y="4" text-anchor="end" fill="rgb(12,12,12)" class="label">260</text><line x1="0" x2="440" y1="0" y2="0" stroke="rgb(203,206,206)"></line></g><g transform="translate(0,29.333344)" class="y-line"><text x="-5" y="4" text-anchor="end" fill="rgb(12,12,12)" class="label">280</text><line x1="0" x2="440" y1="0" y2="0" stroke="rgb(203,206,206)"></line></g><g transform="translate(0,0)" class="y-line"><text x="-5" y="4" text-anchor="end" fill="rgb(12,12,12)" class="label">300</text><line x1="0" x2="440" y1="0" y2="0" stroke="rgb(203,206,206)"></line></g><g transform="translate(0,440)" class="x-line"><text x="0" y="17" text-anchor="middle" fill="rgb(12,12,12)" class="label">One</text><line x1="0" x2="0" y1="0" y2="-440" stroke="rgb(13,16,17)"></line></g><g transform="translate(55,440)" class="x-line"><text x="0" y="17" text-anchor="middle" fill="rgb(12,12,12)" class="label">Two</text><line x1="0" x2="0" y1="0" y2="-440" stroke="rgb(203,206,206)"></line></g><g transform="translate(110,440)" class="x-line"><text x="0" y="17" text-anchor="middle" fill="rgb(12,12,12)" class="label">Three</text><line x1="0" x2="0" y1="0" y2="-440" stroke="rgb(203,206,206)"></line></g><g transform="translate(165,440)" class="x-line"><text x="0" y="17" text-anchor="middle" fill="rgb(12,12,12)" class="label">Four</text><line x1="0" x2="0" y1="0" y2="-440" stroke="rgb(203,206,206)"></line></g><g transform="translate(220,440)" class="x-line"><text x="0" y="17" text-anchor="middle" fill="rgb(12,12,12)" class="label">Five</text><line x1="0" x2="0" y1="0" y2="-440" stroke="rgb(203,206,206)"></line></g><g transform="translate(275,440)" class="x-line"><text x="0" y="17" text-anchor="middle" fill="rgb(12,12,12)" class="label">Six</text><line x1="0" x2="0" y1="0" y2="-440" stroke="rgb(203,206,206)"></line></g><g transform="translate(330,440)" class="x-line"><text x="0" y="17" text-anchor="middle" fill="rgb(12,12,12)" class="label">Seven</text><line x1="0" x2="0" y1="0" y2="-440" stroke="rgb(203,206,206)"></line></g><g transform="translate(385,440)" class="x-line"><text x="0" y="17" text-anchor="middle" fill="rgb(12,12,12)" class="label">Eight</text><line x1="0" x2="0" y1="0" y2="-440" stroke="rgb(203,206,206)"></line></g></g><g transform="translate(30,0)" class="line-box"><path fill="none" stroke-width="2" stroke="rgb(1,120,111)" d="M0,264L55,146.66666L110,14.666687L165,366.66666L220,409.2L275,190.66667L330,327.06665L385,252.26666" class="line"></path></g></g></svg>