<svg width="500" height="500" xmlns="http://www.w3.org/2000/svg" xmlns:xlink="http://www.w3.org/1999/xlink"><g transform="translate(385,45)" class="labels"><g transform="translate(0,0)" class="label"><rect fill="rgb(237,10,63)" x="0" y="-11" width="12" height="12"></rect><text anchor="start" dx="18">One</text></g><g transform="translate(0,20)" class="label"><rect fill="rgb(231,114,0)" x="0" y="-11" width="12" height="12"></rect><text anchor="start" dx="18">Two</text></g><g transform="translate(0,40)" class="label"><rect fill="rgb(254,216,93)" x="0" y="-11" width="12" height="12"></rect><text anchor="start" dx="18">Three</text></g><g transform="translate(0,60)" class="label"><rect fill="rgb(1,120,111)" x="0" y="-11" width="12" height="12"></rect><text anchor="start" dx="18">Four</text></g><g transform="translate(0,80)" class="label"><rect fill="rgb(165,7,44)" x="0" y="-11" width="12" height="12"></rect><text anchor="start" dx="18">Five</text></g><g transform="translate(0,100)" class="label"><rect fill="rgb(243,184,127)" x="0" y="-11" width="12" height="12"></rect><text anchor="start" dx="18">Six</text></g><g transform="translate(0,120)" class="label"><rect fill="rgb(66,75,77)" x="0" y="-11" width="12" height="12"></rect><text anchor="start" dx="18">Seven</text></g><g transform="translate(0,140)" class="label"><rect fill="rgb(203,172,74)" x="0" y="-11" width="12" height="12"></rect><text anchor="start" dx="18">Eight</text></g><g transform="translate(0,160)" class="label"><rect fill="rgb(153,201,197)" x="0" y="-11" width="12" height="12"></rect><text anchor="start" dx="18">Nine</text></g><g transform="translate(0,180)" class="label"><rect fill="rgb(129,135,136)" x="0" y="-11" width="12" height="12"></rect><text anchor="start" dx="18">Ten</text></g></g><g transform="translate(190,250)" class="content"><g class="arc"><path stroke="rgba(245,245,245,0.8)" fill="rgb(237,10,63)" d="M-175,0A175,175,0,0,0,-159.87045,71.17892L0,0Z"></path><text transform="translate(-145.49947,30.926868)" dx="-16" anchor="middle">One (10)</text></g><g class="arc"><path stroke="rgba(245,245,245,0.8)" fill="rgb(231,114,0)" d="M-159.87045,71.17892A175,175,0,0,0,-117.09785,130.05035L0,0Z"></path><text transform="translate(-120.34127,87.43307)" dx="-16" anchor="middle">Two (10)</text></g><g class="arc"><path stroke="rgba(245,245,245,0.8)" fill="rgb(254,216,93)" d="M-117.09785,130.05035A175,175,0,0,0,18.29251,174.04132L0,0Z"></path><text transform="translate(-45.966255,141.46967)" dx="-20" anchor="middle">Three (20)</text></g><g class="arc"><path stroke="rgba(245,245,245,0.8)" fill="rgb(1,120,111)" d="M18.29251,174.04132A175,175,0,0,0,171.17583,36.384533L0,0Z"></path><text transform="translate(99.5332,110.54276)" dx="-18" anchor="middle">Four (30)</text></g><g class="arc"><path stroke="rgba(245,245,245,0.8)" fill="rgb(165,7,44)" d="M171.17583,36.384533A175,175,0,0,0,175,-0.000015298985L0,0Z"></path><text transform="translate(147.93513,15.548579)" dx="-16" anchor="middle">Five (5)</text></g><g class="arc"><path stroke="rgba(245,245,245,0.8)" fill="rgb(243,184,127)" d="M175,-0.000015298985A175,175,0,0,0,141.57797,-102.86244L0,0Z"></path><text transform="translate(141.46967,-45.966274)" dx="-16" anchor="middle">Six (15)</text></g><g class="arc"><path stroke="rgba(245,245,245,0.8)" fill="rgb(66,75,77)" d="M141.57797,-102.86244A175,175,0,0,0,54.07799,-166.43489L0,0Z"></path><text transform="translate(87.43303,-120.34129)" dx="-20" anchor="middle">Seven (15)</text></g><g class="arc"><path stroke="rgba(245,245,245,0.8)" fill="rgb(203,172,74)" d="M54.07799,-166.43489A175,175,0,0,0,-54.077995,-166.43489L0,0Z"></path><text transform="translate(-0.0000017738259,-148.75)" dx="-20" anchor="middle">Eight (15)</text></g><g class="arc"><path stroke="rgba(245,245,245,0.8)" fill="rgb(153,201,197)" d="M-54.077995,-166.43489A175,175,0,0,0,-141.57802,-102.862366L0,0Z"></path><text transform="translate(-87.43309,-120.341255)" dx="-18" anchor="middle">Nine (15)</text></g><g class="arc"><path stroke="rgba(245,245,245,0.8)" fill="rgb(129,135,136)" d="M-141.57802,-102.862366A175,175,0,0,0,-175,0.00011404448L0,0Z"></path><text transform="translate(-141.46968,-45.966206)" dx="-16" anchor="middle">Ten (15)</text></g></g></svg>